<svg width="182" height="46" viewBox="0 0 182 46" fill="none" xmlns="http://www.w3.org/2000/svg">
<path d="M36.283 23.5495C36.283 27.9769 32.5447 31.5991 27.8915 31.5991C23.2383 31.5991 19.5 27.9769 19.5 23.5495C19.5 19.1222 23.2383 15.5 27.8915 15.5C32.5447 15.5 36.283 19.1222 36.283 23.5495Z" stroke="#FFFCFC"/>
<path d="M59.066 23.5495C59.066 27.9769 55.3277 31.5991 50.6745 31.5991C46.0214 31.5991 42.283 27.9769 42.283 23.5495C42.283 19.1222 46.0214 15.5 50.6745 15.5C55.3277 15.5 59.066 19.1222 59.066 23.5495Z" stroke="#FFFCFC"/>
<path d="M81.8491 23.5495C81.8491 27.9769 78.1107 31.5991 73.4575 31.5991C68.8044 31.5991 65.066 27.9769 65.066 23.5495C65.066 19.1222 68.8044 15.5 73.4575 15.5C78.1107 15.5 81.8491 19.1222 81.8491 23.5495Z" stroke="#FFFCFC"/>
<path d="M104.632 23.5495C104.632 27.9769 100.894 31.5991 96.2406 31.5991C91.5874 31.5991 87.8491 27.9769 87.8491 23.5495C87.8491 19.1222 91.5874 15.5 96.2406 15.5C100.894 15.5 104.632 19.1222 104.632 23.5495Z" stroke="#FFFCFC"/>
<path d="M127.415 23.5495C127.415 27.9769 123.677 31.5991 119.024 31.5991C114.37 31.5991 110.632 27.9769 110.632 23.5495C110.632 19.1222 114.37 15.5 119.024 15.5C123.677 15.5 127.415 19.1222 127.415 23.5495Z" fill="white" stroke="#FFFCFC"/>
<path d="M150.198 23.5495C150.198 27.9769 146.46 31.5991 141.807 31.5991C137.153 31.5991 133.415 27.9769 133.415 23.5495C133.415 19.1222 137.153 15.5 141.807 15.5C146.46 15.5 150.198 19.1222 150.198 23.5495Z" stroke="#FFFCFC"/>
</svg>
