<svg width="248" height="63" viewBox="0 0 248 63" fill="none" xmlns="http://www.w3.org/2000/svg">
<g filter="url(#filter0_d_1_95)">
<g filter="url(#filter1_d_1_95)">
<path d="M26.5048 16.437C20.4037 16.437 15.4826 22.0461 15.4826 29C15.4826 35.9539 20.4037 41.563 26.5048 41.563C32.6059 41.563 37.527 35.9539 37.527 29C37.527 22.0461 32.6059 16.437 26.5048 16.437ZM26.5048 37.1676C22.5621 37.1676 19.3389 33.5047 19.3389 29C19.3389 24.4953 22.5525 20.8324 26.5048 20.8324C30.4571 20.8324 33.6707 24.4953 33.6707 29C33.6707 33.5047 30.4475 37.1676 26.5048 37.1676ZM40.5487 15.9231C40.5487 17.5523 39.3976 18.8534 37.9779 18.8534C36.5485 18.8534 35.407 17.5413 35.407 15.9231C35.407 14.3049 36.5581 12.9929 37.9779 12.9929C39.3976 12.9929 40.5487 14.3049 40.5487 15.9231ZM47.8489 18.8971C47.6858 14.9719 46.8992 11.4949 44.3763 8.63026C41.863 5.76559 38.8124 4.86902 35.3686 4.67221C31.8192 4.4426 21.1808 4.4426 17.6314 4.67221C14.1972 4.85808 11.1466 5.75466 8.6237 8.61932C6.10078 11.484 5.32376 14.961 5.15109 18.8862C4.94964 22.9317 4.94964 35.0573 5.15109 39.1029C5.31417 43.0281 6.10078 46.5051 8.6237 49.3697C11.1466 52.2344 14.1876 53.131 17.6314 53.3278C21.1808 53.5574 31.8192 53.5574 35.3686 53.3278C38.8124 53.1419 41.863 52.2453 44.3763 49.3697C46.8896 46.5051 47.6762 43.0281 47.8489 39.1029C48.0504 35.0573 48.0504 22.9427 47.8489 18.8971ZM43.2635 43.4436C42.5153 45.5866 41.0668 47.2376 39.177 48.1014C36.3471 49.3807 29.6321 49.0855 26.5048 49.0855C23.3775 49.0855 16.6529 49.3697 13.8326 48.1014C11.9524 47.2486 10.5039 45.5976 9.74607 43.4436C8.6237 40.2181 8.88271 32.5644 8.88271 29C8.88271 25.4356 8.6333 17.7709 9.74607 14.5564C10.4943 12.4134 11.9428 10.7624 13.8326 9.89858C16.6625 8.61932 23.3775 8.91454 26.5048 8.91454C29.6321 8.91454 36.3567 8.63026 39.177 9.89858C41.0572 10.7514 42.5057 12.4024 43.2635 14.5564C44.3859 17.7819 44.1269 25.4356 44.1269 29C44.1269 32.5644 44.3859 40.2291 43.2635 43.4436Z" fill="#FCFDFF"/>
<path d="M44.7521 8.3005C47.3834 11.2886 48.183 14.8997 48.3484 18.8742C48.5505 22.9379 48.5505 35.0642 48.3484 39.1267C48.1733 43.1005 47.3737 46.7112 44.7525 49.6991C42.1203 52.7104 38.9204 53.6364 35.3982 53.8269C35.3973 53.827 35.3964 53.827 35.3955 53.8271L35.3686 53.3278C31.8192 53.5574 21.1808 53.5574 17.6314 53.3278L44.7521 8.3005ZM44.7521 8.3005C42.1199 5.3003 38.9203 4.37463 35.399 4.17313C31.8272 3.94231 21.1746 3.94229 17.6017 4.17308C14.0888 4.36359 10.8899 5.28969 8.24848 8.28886C5.61624 11.2777 4.82656 14.8897 4.65163 18.8628C4.44947 22.9256 4.44946 35.062 4.6516 39.1257C4.81697 43.1006 5.61673 46.712 8.24848 49.7002C10.8897 52.6992 14.0787 53.6253 17.6005 53.8268L44.7521 8.3005ZM26.5048 15.937C20.0681 15.937 14.9826 21.8334 14.9826 29C14.9826 36.1666 20.0681 42.063 26.5048 42.063C32.9415 42.063 38.027 36.1666 38.027 29C38.027 21.8334 32.9415 15.937 26.5048 15.937ZM26.5048 36.6676C22.8973 36.6676 19.8389 33.2916 19.8389 29C19.8389 24.7079 22.8881 21.3324 26.5048 21.3324C30.1215 21.3324 33.1707 24.7079 33.1707 29C33.1707 33.2916 30.1123 36.6676 26.5048 36.6676ZM37.9779 19.3534C39.7321 19.3534 41.0487 17.7662 41.0487 15.9231C41.0487 14.0922 39.7332 12.4929 37.9779 12.4929C36.2225 12.4929 34.907 14.0922 34.907 15.9231C34.907 17.7527 36.2118 19.3534 37.9779 19.3534ZM42.7915 43.2788C42.0836 45.3063 40.7231 46.8449 38.9694 47.6465C37.6563 48.2395 35.3666 48.4871 32.9346 48.5735C31.2135 48.6346 29.4825 48.6146 28.0559 48.5981C27.483 48.5915 26.9591 48.5855 26.5048 48.5855C26.0595 48.5855 25.547 48.5911 24.9868 48.5972C23.5532 48.6129 21.8067 48.632 20.0716 48.5694C17.6376 48.4816 15.3469 48.234 14.0382 47.6456C12.2966 46.8553 10.9358 45.3181 10.218 43.2784C9.68623 41.7495 9.46909 39.106 9.39332 36.3352C9.33954 34.3688 9.35715 32.3878 9.37163 30.7607C9.37742 30.1092 9.38271 29.5144 9.38271 29C9.38271 28.4957 9.37781 27.9138 9.37245 27.2766C9.35868 25.6417 9.34186 23.6432 9.39691 21.6609C9.4739 18.8885 9.69101 16.2445 10.2183 14.7206C10.9262 12.6937 12.2864 11.1554 14.0395 10.3538C15.3525 9.76058 17.6426 9.51295 20.0749 9.42652C21.7961 9.36537 23.5271 9.38538 24.9537 9.40186C25.5266 9.40848 26.0504 9.41454 26.5048 9.41454C26.9501 9.41454 27.4625 9.40893 28.0228 9.4028C29.4563 9.38712 31.2029 9.36802 32.938 9.43061C35.372 9.51842 37.6628 9.76605 38.9715 10.3544C40.713 11.1447 42.0738 12.6819 42.7916 14.7216C43.3234 16.2505 43.5405 18.894 43.6163 21.6648C43.6701 23.6312 43.6524 25.6122 43.638 27.2393C43.6322 27.8908 43.6269 28.4856 43.6269 29C43.6269 29.5143 43.6322 30.1092 43.638 30.7609C43.6524 32.389 43.6701 34.3718 43.6163 36.3393C43.5405 39.1122 43.3232 41.7558 42.7915 43.2788Z" stroke="white" stroke-opacity="0.5"/>
</g>
<g filter="url(#filter2_d_1_95)">
<path d="M88.903 32.0625L90.5624 23.1946H80.1871V17.44C80.1871 15.0139 81.6364 12.6491 86.2832 12.6491H91V5.0991C91 5.0991 86.7196 4.5 82.6272 4.5C74.0828 4.5 68.4978 8.7473 68.4978 16.4361V23.1946H59V32.0625H68.4978V53.5H80.1871V32.0625H88.903Z" fill="white"/>
<path d="M88.903 32.5625H89.3181L89.3945 32.1545L91.0539 23.2866L91.1646 22.6946H90.5624H80.6871V17.44C80.6871 16.3248 81.0184 15.2736 81.8367 14.4976C82.6573 13.7193 84.0402 13.1491 86.2832 13.1491H91H91.5V12.6491V5.0991V4.66421L91.0693 4.60393L91 5.0991C91.0693 4.60393 91.0693 4.60392 91.0692 4.60391L91.069 4.60388L91.0683 4.60378L91.0657 4.60342L91.0559 4.60207L91.0181 4.59691C90.9851 4.59242 90.9363 4.58589 90.873 4.5776C90.7465 4.56101 90.5616 4.5374 90.3272 4.5091C89.8584 4.4525 89.1912 4.37713 88.3954 4.30178C86.8056 4.15123 84.6952 4 82.6272 4C78.2786 4 74.6211 5.08037 72.0411 7.19829C69.4479 9.32701 67.9978 12.46 67.9978 16.4361V22.6946H59H58.5V23.1946V32.0625V32.5625H59H67.9978V53.5V54H68.4978H80.1871H80.6871V53.5V32.5625H88.903Z" stroke="white" stroke-opacity="0.5"/>
</g>
<g filter="url(#filter3_d_1_95)">
<path d="M143.122 13.541C142.639 10.7695 141.216 8.58676 139.409 7.84602C136.134 6.5 123 6.5 123 6.5C123 6.5 109.866 6.5 106.591 7.84602C104.784 8.58687 103.361 10.7695 102.878 13.541C102 18.5645 102 29.0455 102 29.0455C102 29.0455 102 39.5265 102.878 44.55C103.361 47.3214 104.784 49.4132 106.591 50.154C109.866 51.5 123 51.5 123 51.5C123 51.5 136.134 51.5 139.409 50.154C141.216 49.4132 142.639 47.3214 143.122 44.55C144 39.5265 144 29.0455 144 29.0455C144 29.0455 144 18.5645 143.122 13.541ZM118.705 38.5614V19.5295L129.682 29.0457L118.705 38.5614Z" fill="white"/>
<path d="M123 6.5C123 6 123 6 123 6L122.999 6L122.997 6L122.99 6.00001L122.961 6.00004L122.85 6.00033C122.752 6.00066 122.609 6.00132 122.426 6.00264C122.059 6.00528 121.531 6.01055 120.888 6.0211C119.603 6.04218 117.854 6.08436 116.001 6.16877C114.149 6.25313 112.188 6.37993 110.481 6.57095C108.793 6.75979 107.293 7.01708 106.401 7.38349L123 6.5ZM123 6.5C123 6 123 6 123 6L123.001 6L123.003 6L123.01 6.00001L123.039 6.00004L123.15 6.00033C123.248 6.00066 123.391 6.00132 123.574 6.00264C123.941 6.00528 124.469 6.01055 125.112 6.0211C126.397 6.04218 128.146 6.08436 129.999 6.16877C131.851 6.25313 133.812 6.37993 135.519 6.57095C137.207 6.7598 138.707 7.0171 139.599 7.38354C141.629 8.21568 143.117 10.5955 143.615 13.4549C144.06 16.0052 144.28 19.9135 144.39 23.1601C144.445 24.7886 144.472 26.2593 144.486 27.3229C144.493 27.8547 144.497 28.285 144.498 28.5824C144.499 28.7311 144.5 28.8467 144.5 28.9252L144.5 29.0146L144.5 29.0375L144.5 29.0434V29.0449V29.0453C144.5 29.0454 144.5 29.0455 144 29.0455C144.5 29.0455 144.5 29.0455 144.5 29.0456V29.046V29.0475L144.5 29.0534L144.5 29.0764L144.5 29.1658C144.5 29.2442 144.499 29.3598 144.498 29.5085C144.497 29.806 144.493 30.2362 144.486 30.7681C144.472 31.8317 144.445 33.3024 144.39 34.9308C144.28 38.1774 144.06 42.0858 143.615 44.636C143.115 47.505 141.622 49.7872 139.599 50.6166C138.707 50.983 137.207 51.2402 135.519 51.4291C133.812 51.6201 131.851 51.7469 129.999 51.8312C128.146 51.9156 126.397 51.9578 125.112 51.9789C124.469 51.9894 123.941 51.9947 123.574 51.9974C123.391 51.9987 123.248 51.9993 123.15 51.9997L123.039 52L123.01 52L123.003 52H123.001H123C123 52 123 52 123 51.5C123 52 123 52 123 52H122.999H122.997L122.99 52L122.961 52L122.85 51.9997C122.752 51.9993 122.609 51.9987 122.426 51.9974C122.059 51.9947 121.531 51.9894 120.888 51.9789C119.603 51.9578 117.854 51.9156 116.001 51.8312C114.149 51.7469 112.188 51.6201 110.481 51.4291C108.793 51.2402 107.293 50.983 106.401 50.6166C104.378 49.7872 102.885 47.5049 102.385 44.6358C101.94 42.0856 101.72 38.1773 101.61 34.9308C101.555 33.3024 101.527 31.8317 101.514 30.7681C101.507 30.2362 101.503 29.806 101.502 29.5085C101.501 29.3598 101.5 29.2442 101.5 29.1658L101.5 29.0764L101.5 29.0534L101.5 29.0475L101.5 29.046L101.5 29.0456C101.5 29.0455 101.5 29.0455 102 29.0455M123 6.5L102 29.0455M102 29.0455C101.5 29.0455 101.5 29.0454 101.5 29.0453L101.5 29.0449L101.5 29.0434L101.5 29.0375L101.5 29.0146L101.5 28.9252C101.5 28.8467 101.501 28.7311 101.502 28.5824C101.503 28.285 101.507 27.8547 101.514 27.3229C101.527 26.2593 101.555 24.7886 101.61 23.1601C101.72 19.9136 101.94 16.0054 102.385 13.4551L102 29.0455ZM106.401 7.38354C104.371 8.21579 102.884 10.5955 102.385 13.4549L106.401 7.38354ZM128.918 29.0457L119.205 37.4663V20.6247L128.918 29.0457Z" stroke="white" stroke-opacity="0.5"/>
</g>
<g filter="url(#filter4_d_1_95)">
<path d="M176.454 26.9276L160.671 5.74438L180.752 21.1747L176.454 26.9276ZM156.552 4.5C155.622 5.15091 155 6.33786 155 7.87898V50.121C155 51.6621 155.622 52.8491 156.552 53.5L174.902 28.9952L156.552 4.5ZM186.959 26.0948L182.747 22.8307L178.049 29.0048L182.747 35.1788L187.045 31.9147C188.332 30.5459 188.332 27.4637 186.959 26.0948ZM160.671 52.2652L180.752 36.8348L176.454 31.0819L160.671 52.2652Z" fill="#FCFDFF"/>
<path d="M176.053 27.2264L176.453 27.7638L176.854 27.2269L181.152 21.474L181.448 21.0788L181.057 20.7783L160.976 5.34791L160.27 6.04312L176.053 27.2264ZM156.952 4.20022L156.662 3.81271L156.265 4.09041C155.181 4.84971 154.5 6.20239 154.5 7.87898V50.121C154.5 51.7976 155.181 53.1503 156.265 53.9096L156.662 54.1873L156.952 53.7997L175.302 29.2949L175.527 28.9952L175.302 28.6954L156.952 4.20022ZM187.312 25.7407L187.29 25.7187L187.265 25.6996L183.053 22.4355L182.655 22.1265L182.349 22.5279L177.651 28.702L177.42 29.0048L177.651 29.3076L182.349 35.4816L182.652 35.8791L183.05 35.577L187.347 32.3129L187.381 32.2877L187.409 32.2573C188.171 31.4475 188.511 30.191 188.5 29C188.488 27.8082 188.123 26.549 187.312 25.7407ZM160.27 51.9665L160.976 52.6617L181.057 37.2313L181.448 36.9307L181.152 36.5356L176.854 30.7827L176.453 30.2458L176.053 30.7832L160.27 51.9665Z" stroke="white" stroke-opacity="0.5"/>
</g>
<g filter="url(#filter5_d_1_95)">
<path d="M233.279 30.3938C233.257 26.379 235.066 23.3487 238.726 21.1171C236.678 18.1744 233.584 16.5553 229.499 16.2381C225.633 15.9318 221.406 18.5025 219.859 18.5025C218.226 18.5025 214.478 16.3475 211.537 16.3475C205.459 16.4459 199 21.2155 199 30.9189C199 33.785 199.523 36.746 200.569 39.8017C201.963 43.8165 206.995 53.6621 212.245 53.498C214.99 53.4323 216.929 51.5398 220.502 51.5398C223.966 51.5398 225.763 53.498 228.824 53.498C234.118 53.4214 238.671 44.4729 240 40.4472C232.898 37.0887 233.279 30.6016 233.279 30.3938ZM227.114 12.4311C230.088 8.88674 229.815 5.65959 229.728 4.5C227.103 4.65315 224.064 6.29408 222.332 8.31788C220.426 10.4839 219.304 13.1641 219.544 16.1834C222.387 16.4022 224.979 14.9363 227.114 12.4311Z" fill="#FCFDFF"/>
<path d="M233.779 30.3938L233.779 30.3911C233.769 28.4627 234.197 26.7922 235.052 25.3407C235.909 23.887 237.211 22.6263 238.986 21.544L239.439 21.2675L239.136 20.8315C236.988 17.7454 233.746 16.0665 229.539 15.7396C227.495 15.5778 225.387 16.1757 223.645 16.7833C223.206 16.9362 222.787 17.0913 222.396 17.2366L222.301 17.2718C221.944 17.4043 221.614 17.527 221.309 17.6338C220.622 17.8745 220.147 18.0025 219.859 18.0025C219.537 18.0025 219.063 17.8917 218.437 17.6899C218.002 17.5498 217.528 17.3778 217.018 17.1926C216.804 17.115 216.583 17.035 216.357 16.9541C214.856 16.4181 213.106 15.8475 211.537 15.8475V15.8474L211.529 15.8475C205.177 15.9504 198.5 20.9434 198.5 30.9189C198.5 33.8466 199.034 36.8623 200.095 39.9636L200.096 39.9658C200.807 42.0125 202.434 45.5207 204.553 48.5063C205.613 49.9995 206.81 51.3823 208.094 52.3857C209.375 53.3864 210.785 54.0432 212.259 53.9978C213.608 53.9652 214.777 53.5196 215.921 53.0834C216.027 53.0428 216.134 53.0022 216.24 52.962C217.502 52.4853 218.81 52.0398 220.502 52.0398C222.134 52.0398 223.373 52.4974 224.634 52.9852C224.68 53.0029 224.725 53.0207 224.771 53.0385C225.982 53.5078 227.246 53.998 228.824 53.998L228.831 53.9979C230.298 53.9767 231.677 53.342 232.921 52.3896C234.165 51.4367 235.305 50.1432 236.306 48.7443C238.305 45.9481 239.797 42.6581 240.475 40.6039L240.613 40.1841L240.214 39.9952C233.594 36.8646 233.764 30.9286 233.779 30.4235C233.779 30.4091 233.779 30.3992 233.779 30.3938ZM227.495 12.7555L227.497 12.7525C230.575 9.08408 230.321 5.71556 230.229 4.48842L230.227 4.46253L230.19 3.97221L229.699 4.00085C226.924 4.16273 223.765 5.87631 221.954 7.99014C219.977 10.2382 218.793 13.0465 219.045 16.2229L219.079 16.6491L219.505 16.6819C222.563 16.9172 225.298 15.3331 227.495 12.7555Z" stroke="white" stroke-opacity="0.5"/>
</g>
</g>
<defs>
<filter id="filter0_d_1_95" x="0" y="0" width="245.227" height="66" filterUnits="userSpaceOnUse" color-interpolation-filters="sRGB">
<feFlood flood-opacity="0" result="BackgroundImageFix"/>
<feColorMatrix in="SourceAlpha" type="matrix" values="0 0 0 0 0 0 0 0 0 0 0 0 0 0 0 0 0 0 127 0" result="hardAlpha"/>
<feOffset dy="4"/>
<feGaussianBlur stdDeviation="2"/>
<feComposite in2="hardAlpha" operator="out"/>
<feColorMatrix type="matrix" values="0 0 0 0 0 0 0 0 0 0 0 0 0 0 0 0 0 0 0.25 0"/>
<feBlend mode="normal" in2="BackgroundImageFix" result="effect1_dropShadow_1_95"/>
<feBlend mode="normal" in="SourceGraphic" in2="effect1_dropShadow_1_95" result="shape"/>
</filter>
<filter id="filter1_d_1_95" x="2" y="1.5" width="53" height="59" filterUnits="userSpaceOnUse" color-interpolation-filters="sRGB">
<feFlood flood-opacity="0" result="BackgroundImageFix"/>
<feColorMatrix in="SourceAlpha" type="matrix" values="0 0 0 0 0 0 0 0 0 0 0 0 0 0 0 0 0 0 127 0" result="hardAlpha"/>
<feOffset dx="2" dy="2"/>
<feGaussianBlur stdDeviation="2"/>
<feColorMatrix type="matrix" values="0 0 0 0 0 0 0 0 0 0 0 0 0 0 0 0 0 0 0.25 0"/>
<feBlend mode="normal" in2="BackgroundImageFix" result="effect1_dropShadow_1_95"/>
<feBlend mode="normal" in="SourceGraphic" in2="effect1_dropShadow_1_95" result="shape"/>
</filter>
<filter id="filter2_d_1_95" x="56" y="1.5" width="42" height="59" filterUnits="userSpaceOnUse" color-interpolation-filters="sRGB">
<feFlood flood-opacity="0" result="BackgroundImageFix"/>
<feColorMatrix in="SourceAlpha" type="matrix" values="0 0 0 0 0 0 0 0 0 0 0 0 0 0 0 0 0 0 127 0" result="hardAlpha"/>
<feOffset dx="2" dy="2"/>
<feGaussianBlur stdDeviation="2"/>
<feColorMatrix type="matrix" values="0 0 0 0 0 0 0 0 0 0 0 0 0 0 0 0 0 0 0.25 0"/>
<feBlend mode="normal" in2="BackgroundImageFix" result="effect1_dropShadow_1_95"/>
<feBlend mode="normal" in="SourceGraphic" in2="effect1_dropShadow_1_95" result="shape"/>
</filter>
<filter id="filter3_d_1_95" x="99" y="3.5" width="52" height="55" filterUnits="userSpaceOnUse" color-interpolation-filters="sRGB">
<feFlood flood-opacity="0" result="BackgroundImageFix"/>
<feColorMatrix in="SourceAlpha" type="matrix" values="0 0 0 0 0 0 0 0 0 0 0 0 0 0 0 0 0 0 127 0" result="hardAlpha"/>
<feOffset dx="2" dy="2"/>
<feGaussianBlur stdDeviation="2"/>
<feColorMatrix type="matrix" values="0 0 0 0 0 0 0 0 0 0 0 0 0 0 0 0 0 0 0.25 0"/>
<feBlend mode="normal" in2="BackgroundImageFix" result="effect1_dropShadow_1_95"/>
<feBlend mode="normal" in="SourceGraphic" in2="effect1_dropShadow_1_95" result="shape"/>
</filter>
<filter id="filter4_d_1_95" x="152" y="1.12541" width="43" height="59.7493" filterUnits="userSpaceOnUse" color-interpolation-filters="sRGB">
<feFlood flood-opacity="0" result="BackgroundImageFix"/>
<feColorMatrix in="SourceAlpha" type="matrix" values="0 0 0 0 0 0 0 0 0 0 0 0 0 0 0 0 0 0 127 0" result="hardAlpha"/>
<feOffset dx="2" dy="2"/>
<feGaussianBlur stdDeviation="2"/>
<feColorMatrix type="matrix" values="0 0 0 0 0 0 0 0 0 0 0 0 0 0 0 0 0 0 0.25 0"/>
<feBlend mode="normal" in2="BackgroundImageFix" result="effect1_dropShadow_1_95"/>
<feBlend mode="normal" in="SourceGraphic" in2="effect1_dropShadow_1_95" result="shape"/>
</filter>
<filter id="filter5_d_1_95" x="196" y="1.44443" width="51.2267" height="59.0556" filterUnits="userSpaceOnUse" color-interpolation-filters="sRGB">
<feFlood flood-opacity="0" result="BackgroundImageFix"/>
<feColorMatrix in="SourceAlpha" type="matrix" values="0 0 0 0 0 0 0 0 0 0 0 0 0 0 0 0 0 0 127 0" result="hardAlpha"/>
<feOffset dx="2" dy="2"/>
<feGaussianBlur stdDeviation="2"/>
<feColorMatrix type="matrix" values="0 0 0 0 0 0 0 0 0 0 0 0 0 0 0 0 0 0 0.25 0"/>
<feBlend mode="normal" in2="BackgroundImageFix" result="effect1_dropShadow_1_95"/>
<feBlend mode="normal" in="SourceGraphic" in2="effect1_dropShadow_1_95" result="shape"/>
</filter>
</defs>
</svg>
