<svg width="1346" height="172" viewBox="0 0 1346 172" fill="none" xmlns="http://www.w3.org/2000/svg">
<path opacity="0.7" fill-rule="evenodd" clip-rule="evenodd" d="M-3 151.812L53.2083 143.75C109.417 135.687 221.833 119.562 334.25 115.53C446.667 111.499 559.083 119.562 671.5 95.3738C783.917 71.1859 896.333 14.7475 1008.75 2.65359C1121.17 -9.44034 1233.58 22.8102 1289.79 38.9354L1346 55.0606V176H1289.79C1233.58 176 1121.17 176 1008.75 176C896.333 176 783.917 176 671.5 176C559.083 176 446.667 176 334.25 176C221.833 176 109.417 176 53.2083 176H-3V151.812Z" fill="#429EBD"/>
</svg>
